{
	"asset":{
		"generator":"Khronos glTF Blender I/O v3.5.30",
		"version":"2.0"
	},
	"extensionsUsed":[
		"KHR_lights_punctual"
	],
	"extensionsRequired":[
		"KHR_lights_punctual"
	],
	"extensions":{
		"KHR_lights_punctual":{
			"lights":[
				{
					"color":[
						1,
						1,
						1
					],
					"intensity":5435.141306588225,
					"type":"point",
					"name":"Spot"
				}
			]
		}
	},
	"scene":0,
	"scenes":[
		{
			"name":"Scene",
			"nodes":[
				0,
				1,
				2,
				3,
				4,
				5,
				6,
				7,
				8
			]
		}
	],
	"nodes":[
		{
			"camera":0,
			"name":"Camera",
			"rotation":[
				0,
				0.7071068286895752,
				0,
				0.7071068286895752
			],
			"translation":[
				13.16653060913086,
				0,
				0
			]
		},
		{
			"mesh":0,
			"name":"Cube.001",
			"rotation":[
				0,
				1,
				0,
				0
			],
			"scale":[
				-0.32934194803237915,
				-0.022545253857970238,
				-0.32934194803237915
			],
			"translation":[
				-2.2784767150878906,
				-3.9579920768737793,
				2.665558338165283
			]
		},
		{
			"mesh":1,
			"name":"Cube.004",
			"scale":[
				0.05000000074505806,
				1.8700000047683716,
				0.05000000074505806
			],
			"translation":[
				-2.2784767150878906,
				-2.089580535888672,
				2.665558338165283
			]
		},
		{
			"mesh":2,
			"name":"Cube.005",
			"rotation":[
				0,
				1,
				0,
				0
			],
			"scale":[
				-0.16992920637130737,
				-0.011632582172751427,
				-0.16992920637130737
			],
			"translation":[
				-2.2784767150878906,
				-0.21211516857147217,
				2.665558338165283
			]
		},
		{
			"mesh":3,
			"name":"Cube.006",
			"rotation":[
				0,
				1,
				0,
				0
			],
			"scale":[
				-0.32934194803237915,
				-0.022545253857970238,
				-0.32934194803237915
			],
			"translation":[
				-2.2784767150878906,
				-0.1770620346069336,
				2.665558338165283
			]
		},
		{
			"extensions":{
				"KHR_lights_punctual":{
					"light":0
				}
			},
			"name":"Spot",
			"rotation":[
				0.7071069478988647,
				0,
				0,
				0.7071065902709961
			],
			"translation":[
				-2.2784767150878906,
				-0.0058327317237854,
				2.665558338165283
			]
		},
		{
			"mesh":4,
			"name":"Cube.007",
			"scale":[
				4,
				4,
				4
			]
		},
		{
			"mesh":5,
			"name":"Cube.008",
			"scale":[
				4,
				4,
				4
			],
			"translation":[
				0,
				0,
				4
			]
		},
		{
			"mesh":6,
			"name":"Cube.009",
			"scale":[
				4,
				4,
				4
			],
			"translation":[
				0,
				0,
				-4
			]
		}
	],
	"cameras":[
		{
			"name":"Camera",
			"perspective":{
				"aspectRatio":1.7777777777777777,
				"yfov":0.5631968779732008,
				"zfar":100,
				"znear":0.10000000149011612
			},
			"type":"perspective"
		}
	],
	"materials":[
		{
			"doubleSided":true,
			"name":"Material.005",
			"pbrMetallicRoughness":{
				"baseColorFactor":[
					0,
					0,
					0,
					1
				],
				"metallicFactor":0,
				"roughnessFactor":0.5
			}
		},
		{
			"doubleSided":true,
			"name":"Material.006",
			"pbrMetallicRoughness":{
				"baseColorFactor":[
					0,
					0,
					0,
					1
				],
				"metallicFactor":0,
				"roughnessFactor":0.5
			}
		},
		{
			"doubleSided":true,
			"name":"Material.007",
			"pbrMetallicRoughness":{
				"baseColorTexture":{
					"index":0
				},
				"metallicFactor":0,
				"roughnessFactor":0.5
			}
		},
		{
			"doubleSided":true,
			"name":"Material.003",
			"pbrMetallicRoughness":{
				"baseColorTexture":{
					"index":1
				},
				"metallicFactor":0,
				"roughnessFactor":0.5
			}
		},
		{
			"doubleSided":true,
			"name":"Material.002",
			"pbrMetallicRoughness":{
				"baseColorTexture":{
					"index":2
				},
				"metallicFactor":0,
				"roughnessFactor":0.5
			}
		}
	],
	"meshes":[
		{
			"name":"Cube",
			"primitives":[
				{
					"attributes":{
						"POSITION":0,
						"TEXCOORD_0":1,
						"NORMAL":2,
						"TANGENT":3
					},
					"indices":4,
					"material":0
				}
			]
		},
		{
			"name":"Cube.002",
			"primitives":[
				{
					"attributes":{
						"POSITION":5,
						"TEXCOORD_0":6,
						"NORMAL":7,
						"TANGENT":8
					},
					"indices":4,
					"material":0
				}
			]
		},
		{
			"name":"Cube.005",
			"primitives":[
				{
					"attributes":{
						"POSITION":9,
						"TEXCOORD_0":10,
						"NORMAL":11,
						"TANGENT":12
					},
					"indices":4,
					"material":1
				}
			]
		},
		{
			"name":"Cube.006",
			"primitives":[
				{
					"attributes":{
						"POSITION":13,
						"TEXCOORD_0":14,
						"NORMAL":15,
						"TANGENT":16
					},
					"indices":4,
					"material":2
				}
			]
		},
		{
			"name":"Cube.007",
			"primitives":[
				{
					"attributes":{
						"POSITION":17,
						"TEXCOORD_0":18,
						"NORMAL":19,
						"TANGENT":20
					},
					"indices":21,
					"material":3
				}
			]
		},
		{
			"name":"Cube.008",
			"primitives":[
				{
					"attributes":{
						"POSITION":22,
						"TEXCOORD_0":23,
						"NORMAL":24,
						"TANGENT":25
					},
					"indices":26,
					"material":4
				}
			]
		},
		{
			"name":"Cube.009",
			"primitives":[
				{
					"attributes":{
						"POSITION":27,
						"TEXCOORD_0":28,
						"NORMAL":29,
						"TANGENT":30
					},
					"indices":31,
					"material":2
				}
			]
		}
	],
	"textures":[
		{
			"sampler":0,
			"source":0
		},
		{
			"sampler":0,
			"source":1
		},
		{
			"sampler":0,
			"source":2
		}
	],
	"images":[
		{
			"mimeType":"image/png",
			"name":"Untitled",
			"uri":"Untitled.png"
		},
		{
			"mimeType":"image/png",
			"name":"Untitled",
			"uri":"Untitled-1.png"
		},
		{
			"mimeType":"image/png",
			"name":"Untitled",
			"uri":"Untitled-2.png"
		}
	],
	"accessors":[
		{
			"bufferView":0,
			"componentType":5126,
			"count":24,
			"max":[
				1,
				1,
				1
			],
			"min":[
				-1,
				-1,
				-1
			],
			"type":"VEC3"
		},
		{
			"bufferView":1,
			"componentType":5126,
			"count":24,
			"type":"VEC2"
		},
		{
			"bufferView":2,
			"componentType":5126,
			"count":24,
			"type":"VEC3"
		},
		{
			"bufferView":3,
			"componentType":5126,
			"count":24,
			"type":"VEC4"
		},
		{
			"bufferView":4,
			"componentType":5123,
			"count":36,
			"type":"SCALAR"
		},
		{
			"bufferView":5,
			"componentType":5126,
			"count":24,
			"max":[
				1,
				1,
				1
			],
			"min":[
				-1,
				-1,
				-1
			],
			"type":"VEC3"
		},
		{
			"bufferView":6,
			"componentType":5126,
			"count":24,
			"type":"VEC2"
		},
		{
			"bufferView":7,
			"componentType":5126,
			"count":24,
			"type":"VEC3"
		},
		{
			"bufferView":8,
			"componentType":5126,
			"count":24,
			"type":"VEC4"
		},
		{
			"bufferView":9,
			"componentType":5126,
			"count":24,
			"max":[
				1,
				1,
				1
			],
			"min":[
				-1,
				-1,
				-1
			],
			"type":"VEC3"
		},
		{
			"bufferView":10,
			"componentType":5126,
			"count":24,
			"type":"VEC2"
		},
		{
			"bufferView":11,
			"componentType":5126,
			"count":24,
			"type":"VEC3"
		},
		{
			"bufferView":12,
			"componentType":5126,
			"count":24,
			"type":"VEC4"
		},
		{
			"bufferView":13,
			"componentType":5126,
			"count":24,
			"max":[
				1,
				1,
				1
			],
			"min":[
				-1,
				-1,
				-1
			],
			"type":"VEC3"
		},
		{
			"bufferView":14,
			"componentType":5126,
			"count":24,
			"type":"VEC2"
		},
		{
			"bufferView":15,
			"componentType":5126,
			"count":24,
			"type":"VEC3"
		},
		{
			"bufferView":16,
			"componentType":5126,
			"count":24,
			"type":"VEC4"
		},
		{
			"bufferView":17,
			"componentType":5126,
			"count":12,
			"max":[
				1,
				1,
				1
			],
			"min":[
				-1,
				-1,
				-1
			],
			"type":"VEC3"
		},
		{
			"bufferView":18,
			"componentType":5126,
			"count":12,
			"type":"VEC2"
		},
		{
			"bufferView":19,
			"componentType":5126,
			"count":12,
			"type":"VEC3"
		},
		{
			"bufferView":20,
			"componentType":5126,
			"count":12,
			"type":"VEC4"
		},
		{
			"bufferView":21,
			"componentType":5123,
			"count":18,
			"type":"SCALAR"
		},
		{
			"bufferView":22,
			"componentType":5126,
			"count":4,
			"max":[
				1,
				1,
				0
			],
			"min":[
				-1,
				-1,
				0
			],
			"type":"VEC3"
		},
		{
			"bufferView":23,
			"componentType":5126,
			"count":4,
			"type":"VEC2"
		},
		{
			"bufferView":24,
			"componentType":5126,
			"count":4,
			"type":"VEC3"
		},
		{
			"bufferView":25,
			"componentType":5126,
			"count":4,
			"type":"VEC4"
		},
		{
			"bufferView":26,
			"componentType":5123,
			"count":6,
			"type":"SCALAR"
		},
		{
			"bufferView":27,
			"componentType":5126,
			"count":4,
			"max":[
				1,
				1,
				0
			],
			"min":[
				-1,
				-1,
				0
			],
			"type":"VEC3"
		},
		{
			"bufferView":28,
			"componentType":5126,
			"count":4,
			"type":"VEC2"
		},
		{
			"bufferView":29,
			"componentType":5126,
			"count":4,
			"type":"VEC3"
		},
		{
			"bufferView":30,
			"componentType":5126,
			"count":4,
			"type":"VEC4"
		},
		{
			"bufferView":31,
			"componentType":5123,
			"count":6,
			"type":"SCALAR"
		}
	],
	"bufferViews":[
		{
			"buffer":0,
			"byteLength":288,
			"byteOffset":0,
			"target":34962
		},
		{
			"buffer":0,
			"byteLength":192,
			"byteOffset":288,
			"target":34962
		},
		{
			"buffer":0,
			"byteLength":288,
			"byteOffset":480,
			"target":34962
		},
		{
			"buffer":0,
			"byteLength":384,
			"byteOffset":768,
			"target":34962
		},
		{
			"buffer":0,
			"byteLength":72,
			"byteOffset":1152,
			"target":34963
		},
		{
			"buffer":0,
			"byteLength":288,
			"byteOffset":1224,
			"target":34962
		},
		{
			"buffer":0,
			"byteLength":192,
			"byteOffset":1512,
			"target":34962
		},
		{
			"buffer":0,
			"byteLength":288,
			"byteOffset":1704,
			"target":34962
		},
		{
			"buffer":0,
			"byteLength":384,
			"byteOffset":1992,
			"target":34962
		},
		{
			"buffer":0,
			"byteLength":288,
			"byteOffset":2376,
			"target":34962
		},
		{
			"buffer":0,
			"byteLength":192,
			"byteOffset":2664,
			"target":34962
		},
		{
			"buffer":0,
			"byteLength":288,
			"byteOffset":2856,
			"target":34962
		},
		{
			"buffer":0,
			"byteLength":384,
			"byteOffset":3144,
			"target":34962
		},
		{
			"buffer":0,
			"byteLength":288,
			"byteOffset":3528,
			"target":34962
		},
		{
			"buffer":0,
			"byteLength":192,
			"byteOffset":3816,
			"target":34962
		},
		{
			"buffer":0,
			"byteLength":288,
			"byteOffset":4008,
			"target":34962
		},
		{
			"buffer":0,
			"byteLength":384,
			"byteOffset":4296,
			"target":34962
		},
		{
			"buffer":0,
			"byteLength":144,
			"byteOffset":4680,
			"target":34962
		},
		{
			"buffer":0,
			"byteLength":96,
			"byteOffset":4824,
			"target":34962
		},
		{
			"buffer":0,
			"byteLength":144,
			"byteOffset":4920,
			"target":34962
		},
		{
			"buffer":0,
			"byteLength":192,
			"byteOffset":5064,
			"target":34962
		},
		{
			"buffer":0,
			"byteLength":36,
			"byteOffset":5256,
			"target":34963
		},
		{
			"buffer":0,
			"byteLength":48,
			"byteOffset":5292,
			"target":34962
		},
		{
			"buffer":0,
			"byteLength":32,
			"byteOffset":5340,
			"target":34962
		},
		{
			"buffer":0,
			"byteLength":48,
			"byteOffset":5372,
			"target":34962
		},
		{
			"buffer":0,
			"byteLength":64,
			"byteOffset":5420,
			"target":34962
		},
		{
			"buffer":0,
			"byteLength":12,
			"byteOffset":5484,
			"target":34963
		},
		{
			"buffer":0,
			"byteLength":48,
			"byteOffset":5496,
			"target":34962
		},
		{
			"buffer":0,
			"byteLength":32,
			"byteOffset":5544,
			"target":34962
		},
		{
			"buffer":0,
			"byteLength":48,
			"byteOffset":5576,
			"target":34962
		},
		{
			"buffer":0,
			"byteLength":64,
			"byteOffset":5624,
			"target":34962
		},
		{
			"buffer":0,
			"byteLength":12,
			"byteOffset":5688,
			"target":34963
		}
	],
	"samplers":[
		{
			"magFilter":9729,
			"minFilter":9987
		}
	],
	"buffers":[
		{
			"byteLength":5700,
			"uri":"model.bin"
		}
	]
}
