{
	"asset":{
		"generator":"Khronos glTF Blender I/O v3.5.30",
		"version":"2.0"
	},
	"extensionsUsed":[
		"KHR_materials_specular",
		"KHR_materials_ior"
	],
	"scene":0,
	"scenes":[
		{
			"name":"Scene",
			"nodes":[
				0,
				1
			]
		}
	],
	"nodes":[
		{
			"mesh":0,
			"name":"Cube",
			"scale":[
				14.26395034790039,
				5.318693161010742,
				6.886845588684082
			],
			"translation":[
				5.231637477874756,
				2.062329053878784,
				-16.278919219970703
			]
		},
		{
			"mesh":1,
			"name":"dragon",
			"rotation":[
				0,
				-0.020617663860321045,
				0,
				0.999787449836731
			],
			"scale":[
				0.06153499707579613,
				0.061535000801086426,
				0.06153499707579613
			],
			"translation":[
				14.657842636108398,
				-0.6328022480010986,
				-15.88997745513916
			]
		}
	],
	"materials":[
		{
			"doubleSided":true,
			"extensions":{
				"KHR_materials_specular":{
					"specularColorTexture":{
						"index":0
					}
				},
				"KHR_materials_ior":{
					"ior":1.4500000476837158
				}
			},
			"name":"Material.001",
			"pbrMetallicRoughness":{
				"baseColorTexture":{
					"index":1
				},
				"metallicFactor":0.05633801221847534,
				"roughnessFactor":0.771942138671875
			}
		},
		{
			"doubleSided":true,
			"name":"DefaultMaterial.001",
			"normalTexture":{
				"index":2
			},
			"occlusionTexture":{
				"index":3
			},
			"pbrMetallicRoughness":{
				"baseColorTexture":{
					"index":4
				},
				"metallicRoughnessTexture":{
					"index":3
				}
			}
		}
	],
	"meshes":[
		{
			"name":"Cube",
			"primitives":[
				{
					"attributes":{
						"COLOR_0":0,
						"POSITION":1,
						"TEXCOORD_0":2,
						"NORMAL":3
					},
					"indices":4,
					"material":0
				}
			]
		},
		{
			"name":"defaultMaterial.001",
			"primitives":[
				{
					"attributes":{
						"POSITION":5,
						"TEXCOORD_0":6,
						"NORMAL":7,
						"TANGENT":8
					},
					"indices":9,
					"material":1
				}
			]
		}
	],
	"textures":[
		{
			"sampler":0,
			"source":0
		},
		{
			"sampler":0,
			"source":1
		},
		{
			"sampler":0,
			"source":2
		},
		{
			"sampler":0,
			"source":3
		},
		{
			"sampler":0,
			"source":4
		}
	],
	"images":[
		{
			"mimeType":"image/png",
			"name":"Image",
			"uri":"Image.png"
		},
		{
			"mimeType":"image/png",
			"name":"Untitled-1",
			"uri":"Untitled-1.png"
		},
		{
			"mimeType":"image/png",
			"name":"DefaultMaterial_normal",
			"uri":"DefaultMaterial_normal.png"
		},
		{
			"mimeType":"image/png",
			"name":"DefaultMaterial_metallicRoughness",
			"uri":"DefaultMaterial_metallicRoughness.png"
		},
		{
			"mimeType":"image/jpeg",
			"name":"DefaultMaterial_baseColor",
			"uri":"DefaultMaterial_baseColor.jpg"
		}
	],
	"accessors":[
		{
			"bufferView":0,
			"componentType":5126,
			"count":188,
			"type":"VEC4"
		},
		{
			"bufferView":1,
			"componentType":5126,
			"count":188,
			"max":[
				1,
				1,
				1
			],
			"min":[
				-1,
				-1,
				-1
			],
			"type":"VEC3"
		},
		{
			"bufferView":2,
			"componentType":5126,
			"count":188,
			"type":"VEC2"
		},
		{
			"bufferView":3,
			"componentType":5126,
			"count":188,
			"type":"VEC3"
		},
		{
			"bufferView":4,
			"componentType":5123,
			"count":804,
			"type":"SCALAR"
		},
		{
			"bufferView":5,
			"componentType":5126,
			"count":11242,
			"max":[
				77.86702728271484,
				57.28619384765625,
				33.27497100830078
			],
			"min":[
				-63.65167999267578,
				-42.32193374633789,
				-29.936901092529297
			],
			"type":"VEC3"
		},
		{
			"bufferView":6,
			"componentType":5126,
			"count":11242,
			"type":"VEC2"
		},
		{
			"bufferView":7,
			"componentType":5126,
			"count":11242,
			"type":"VEC3"
		},
		{
			"bufferView":8,
			"componentType":5126,
			"count":11242,
			"type":"VEC4"
		},
		{
			"bufferView":9,
			"componentType":5123,
			"count":57996,
			"type":"SCALAR"
		}
	],
	"bufferViews":[
		{
			"buffer":0,
			"byteLength":3008,
			"byteOffset":0,
			"target":34962
		},
		{
			"buffer":0,
			"byteLength":2256,
			"byteOffset":3008,
			"target":34962
		},
		{
			"buffer":0,
			"byteLength":1504,
			"byteOffset":5264,
			"target":34962
		},
		{
			"buffer":0,
			"byteLength":2256,
			"byteOffset":6768,
			"target":34962
		},
		{
			"buffer":0,
			"byteLength":1608,
			"byteOffset":9024,
			"target":34963
		},
		{
			"buffer":0,
			"byteLength":134904,
			"byteOffset":10632,
			"target":34962
		},
		{
			"buffer":0,
			"byteLength":89936,
			"byteOffset":145536,
			"target":34962
		},
		{
			"buffer":0,
			"byteLength":134904,
			"byteOffset":235472,
			"target":34962
		},
		{
			"buffer":0,
			"byteLength":179872,
			"byteOffset":370376,
			"target":34962
		},
		{
			"buffer":0,
			"byteLength":115992,
			"byteOffset":550248,
			"target":34963
		}
	],
	"samplers":[
		{
			"magFilter":9729,
			"minFilter":9987
		}
	],
	"buffers":[
		{
			"byteLength":666240,
			"uri":"model.bin"
		}
	]
}
